<?xml version="1.0" standalone="no"?>
<!DOCTYPE svg PUBLIC "-//W3C//DTD SVG 20010904//EN"
 "http://www.w3.org/TR/2001/REC-SVG-20010904/DTD/svg10.dtd">
<svg version="1.0" xmlns="http://www.w3.org/2000/svg"
 width="1024.000000pt" height="1024.000000pt" viewBox="0 0 1024.000000 1024.000000"
 preserveAspectRatio="xMidYMid meet">
<metadata>
Created by potrace 1.11, written by Peter Selinger 2001-2013
</metadata>
<g transform="translate(0.000000,1024.000000) scale(0.100000,-0.100000)"
fill="#000000" stroke="none">
<path d="M6329 9399 c-5 -3 -7 -37 -4 -75 3 -38 7 -98 10 -134 3 -36 7 -90 10
-120 3 -30 7 -91 10 -135 9 -139 20 -277 30 -405 3 -30 7 -89 10 -130 3 -41 7
-95 10 -120 2 -25 7 -85 10 -135 3 -49 8 -119 11 -155 6 -66 7 -83 20 -267 l6
-102 -88 34 c-306 118 -1413 534 -1428 537 -18 3 -24 -11 -131 -307 -18 -49
-58 -161 -90 -248 -32 -87 -53 -162 -49 -166 5 -4 83 -22 174 -40 91 -18 172
-34 180 -36 56 -11 364 -74 570 -117 135 -27 256 -52 270 -55 108 -19 378 -75
393 -81 16 -6 15 -10 -11 -42 -16 -19 -138 -174 -271 -345 -133 -170 -248
-317 -254 -325 -7 -8 -28 -35 -47 -60 -19 -25 -42 -54 -52 -65 -15 -18 -269
-345 -342 -440 -17 -22 -34 -42 -37 -45 -3 -3 -22 -27 -43 -55 -31 -41 -35
-51 -22 -60 8 -5 80 -55 161 -110 81 -55 153 -104 159 -110 7 -5 19 -14 28
-20 22 -14 194 -132 242 -167 l40 -28 36 62 c21 35 135 227 255 428 120 201
225 377 234 392 18 31 247 415 261 438 5 8 32 52 60 97 27 46 50 86 50 90 0 3
7 14 16 24 15 17 29 -4 226 -339 116 -196 247 -420 293 -497 45 -77 135 -230
200 -340 65 -110 134 -227 154 -260 21 -33 40 -68 44 -78 6 -15 23 -7 127 65
66 46 178 122 248 170 70 49 135 95 145 103 9 8 19 15 22 15 2 0 29 17 59 38
l54 38 -41 54 c-72 92 -527 674 -540 690 -7 8 -100 128 -207 265 -107 138
-197 252 -200 255 -10 9 -120 156 -120 161 0 3 8 5 18 6 19 2 55 8 92 17 14 3
36 8 50 10 14 2 45 9 70 15 25 5 58 12 74 15 16 3 52 10 80 16 28 6 60 12 71
14 11 2 79 16 150 31 72 15 141 29 155 32 14 2 88 18 165 34 77 16 156 32 175
35 19 3 43 7 52 10 24 7 59 15 93 20 17 3 71 13 120 24 91 19 126 26 179 36
55 10 55 12 16 129 -20 61 -39 117 -42 125 -3 8 -41 121 -83 250 -43 129 -79
236 -80 238 -2 2 -563 -207 -1223 -457 -162 -61 -300 -111 -307 -111 -8 0 -12
8 -10 18 1 10 6 65 10 122 4 58 9 119 10 135 1 17 5 73 9 125 12 152 15 201
21 270 3 36 7 99 10 140 3 41 8 102 10 135 3 33 7 92 10 130 3 39 7 99 10 135
3 36 8 92 10 125 2 33 7 89 9 125 3 36 8 103 12 150 3 47 8 102 9 123 3 29 0
37 -13 38 -88 4 -776 3 -783 -2z"/>
<path d="M2761 2170 c-41 -11 -95 -30 -120 -42 -139 -66 -271 -210 -329 -358
-66 -166 -56 -384 23 -540 21 -42 93 -139 129 -175 62 -62 196 -141 271 -159
17 -5 41 -11 55 -14 14 -3 75 -6 135 -6 86 0 126 5 185 23 206 62 378 234 442
441 29 97 31 273 3 365 -18 61 -59 148 -93 199 -38 55 -127 139 -193 182 -144
94 -347 128 -508 84z"/>
</g>
</svg>
